{
	"asset":{
		"generator":"Khronos glTF Blender I/O v4.0.44",
		"version":"2.0"
	},
	"scene":0,
	"scenes":[
		{
			"name":"Scene",
			"nodes":[
				0,
				1
			]
		}
	],
	"nodes":[
		{
			"mesh":0,
			"name":"Cube",
			"scale":[
				1,
				1,
				0.20000000298023224
			]
		},
		{
			"mesh":1,
			"name":"Cube.001",
			"scale":[
				1,
				1,
				0.20000000298023224
			],
			"translation":[
				-23.299999237060547,
				0,
				0
			]
		}
	],
	"materials":[
		{
			"doubleSided":true,
			"name":"Material_002",
			"pbrMetallicRoughness":{
				"baseColorFactor":[
					0,
					0.09834632277488708,
					0.800000011920929,
					1
				],
				"metallicFactor":0,
				"roughnessFactor":0.5
			}
		}
	],
	"meshes":[
		{
			"name":"Cube.001",
			"primitives":[
				{
					"attributes":{
						"POSITION":0,
						"NORMAL":1,
						"TEXCOORD_0":2
					},
					"indices":3
				}
			]
		},
		{
			"name":"Cube.049",
			"primitives":[
				{
					"attributes":{
						"POSITION":4,
						"NORMAL":5,
						"TEXCOORD_0":6
					},
					"indices":3,
					"material":0
				}
			]
		}
	],
	"accessors":[
		{
			"bufferView":0,
			"componentType":5126,
			"count":148,
			"max":[
				11.6619873046875,
				11.49113655090332,
				10.704914093017578
			],
			"min":[
				-11.6619873046875,
				-8.099170684814453,
				-10.704914093017578
			],
			"type":"VEC3"
		},
		{
			"bufferView":1,
			"componentType":5126,
			"count":148,
			"type":"VEC3"
		},
		{
			"bufferView":2,
			"componentType":5126,
			"count":148,
			"type":"VEC2"
		},
		{
			"bufferView":3,
			"componentType":5123,
			"count":276,
			"type":"SCALAR"
		},
		{
			"bufferView":4,
			"componentType":5126,
			"count":148,
			"max":[
				11.6619873046875,
				11.49113655090332,
				10.704914093017578
			],
			"min":[
				-11.6619873046875,
				-8.099170684814453,
				-10.704914093017578
			],
			"type":"VEC3"
		},
		{
			"bufferView":5,
			"componentType":5126,
			"count":148,
			"type":"VEC3"
		},
		{
			"bufferView":6,
			"componentType":5126,
			"count":148,
			"type":"VEC2"
		}
	],
	"bufferViews":[
		{
			"buffer":0,
			"byteLength":1776,
			"byteOffset":0,
			"target":34962
		},
		{
			"buffer":0,
			"byteLength":1776,
			"byteOffset":1776,
			"target":34962
		},
		{
			"buffer":0,
			"byteLength":1184,
			"byteOffset":3552,
			"target":34962
		},
		{
			"buffer":0,
			"byteLength":552,
			"byteOffset":4736,
			"target":34963
		},
		{
			"buffer":0,
			"byteLength":1776,
			"byteOffset":5288,
			"target":34962
		},
		{
			"buffer":0,
			"byteLength":1776,
			"byteOffset":7064,
			"target":34962
		},
		{
			"buffer":0,
			"byteLength":1184,
			"byteOffset":8840,
			"target":34962
		}
	],
	"buffers":[
		{
			"byteLength":10024,
			"uri":"Castle2.bin"
		}
	]
}
